<svg id="katman_1" data-name="katman 1" xmlns="http://www.w3.org/2000/svg" viewBox="0 0 887.43 684.99"><defs><style>.cls-1{fill:#ff4b11;}</style></defs><path class="cls-1" d="M449.29,11c-160.2,0-290,129.84-290,290s129.84,290,290,290,290-129.84,290-290S609.45,11,449.29,11ZM707.2,298.87a77.71,77.71,0,0,1-139.71,46A139.69,139.69,0,0,1,453.15,558.94H453c-1.25,0-2.47,0-3.72,0s-2.47,0-3.73,0h-.14A139.72,139.72,0,0,1,331.05,344.88a77.72,77.72,0,0,1-139.72-46v-.78l0-2.08C194,155.86,308.49,43.07,449.29,43.07S704.52,155.86,707.17,296c0,.32,0,.68,0,1,0,.54,0,1.08,0,1.61Z" transform="translate(-5.57 -10.98)"/><path class="cls-1" d="M449.27,302.45v-1.86c0-.32,0-.68,0-1" transform="translate(-5.57 -10.98)"/><path class="cls-1" d="M449.29,302.45v-.25a3.08,3.08,0,0,1,0-.61,8.36,8.36,0,0,1,0-1c0-.32,0-.68,0-1" transform="translate(-5.57 -10.98)"/><path class="cls-1" d="M449.27,302.45v-1.86c0-.32,0-.68,0-1" transform="translate(-5.57 -10.98)"/><path class="cls-1" d="M449.3,301.22a4.22,4.22,0,0,1,0,.61c0-.54,0-1.08,0-1.61C449.3,300.54,449.3,300.9,449.3,301.22Z" transform="translate(-5.57 -10.98)"/><circle class="cls-1" cx="249.38" cy="290.04" r="37.11"/><circle class="cls-1" cx="632.5" cy="290.04" r="37.11"/><path class="cls-1" d="M586.58,547.08,449.29,564,312,547.08,5.57,451S199,519.87,330.76,594.13c62.05,35,110.44,71.14,118.53,101.84,8.08-30.7,56.47-66.86,118.53-101.84C699.59,519.87,893,451,893,451Z" transform="translate(-5.57 -10.98)"/><path class="cls-1" d="M516.93,419.39a3,3,0,0,1,3.82,4.5,99.22,99.22,0,0,1-142.93,0,3,3,0,0,1,3.83-4.5,120.81,120.81,0,0,0,135.28,0Z" transform="translate(-5.57 -10.98)"/></svg>